<svg xmlns="http://www.w3.org/2000/svg" viewBox="0 0 366.57 438.51"><defs><style>.cls-1,.cls-2,.cls-4{fill:#dde7e9;}.cls-2{opacity:0.9;}.cls-3{fill:#94b7bd;}.cls-4{opacity:0.8;}.cls-15,.cls-5{fill:#fff;}.cls-10,.cls-6{opacity:0.2;}.cls-7{fill:#ebebeb;}.cls-8{fill:#263238;}.cls-9{fill:#455a64;}.cls-11{fill:#ffbe9d;}.cls-12{fill:#e6525e;}.cls-13{opacity:0.4;}.cls-14,.cls-15{opacity:0.6;}.cls-16{fill:#eb996e;}</style></defs><g id="Calque_2" data-name="Calque 2"><g id="Capa_7" data-name="Capa 7"><polygon class="cls-1" points="113.04 130.67 82.78 438.51 366.57 438.51 202.96 115.95 113.04 130.67"/><polygon class="cls-2" points="113.04 130.67 82.78 438.51 366.57 438.51 202.96 115.95 113.04 130.67"/><polygon class="cls-3" points="123.84 147.24 113.04 438.51 327.27 438.51 197.45 132.95 123.84 147.24"/><polygon class="cls-4" points="123.84 147.24 113.04 438.51 327.27 438.51 197.45 132.95 123.84 147.24"/><path class="cls-3" d="M133.7,213.16c-.14,0,.36-13,1.11-28.92s1.49-28.91,1.64-28.9-.36,12.95-1.12,28.92S133.85,213.16,133.7,213.16Z"/><path class="cls-3" d="M163.11,200.59c-.14,0-1.9-9.65-3.93-21.59s-3.56-21.65-3.42-21.68,1.9,9.64,3.93,21.59S163.25,200.56,163.11,200.59Z"/><path class="cls-3" d="M191,181.7c-.14.06-3.05-7-6.51-15.88s-6.16-16-6-16.07,3,7.06,6.5,15.88S191.1,181.65,191,181.7Z"/><path class="cls-3" d="M103.59,134.61l-.35,10.9s63.22,2.21,112.22-22.49l-4.3-10.76Z"/><path class="cls-5" d="M115.17,139.85a1.78,1.78,0,1,1-1.78-1.78A1.78,1.78,0,0,1,115.17,139.85Z"/><circle class="cls-5" cx="139.31" cy="138.18" r="1.78"/><path class="cls-5" d="M127.41,139.28a1.78,1.78,0,1,1-1.87-1.7A1.79,1.79,0,0,1,127.41,139.28Z"/><path class="cls-5" d="M154.93,136.4a1.78,1.78,0,1,1-1.78-1.79A1.78,1.78,0,0,1,154.93,136.4Z"/><path class="cls-5" d="M186.64,129.56a1.78,1.78,0,1,1-1.78-1.78A1.77,1.77,0,0,1,186.64,129.56Z"/><path class="cls-5" d="M201.53,125a1.79,1.79,0,1,1-1.79-1.78A1.79,1.79,0,0,1,201.53,125Z"/><path class="cls-5" d="M170.47,133.68a1.78,1.78,0,1,1-1.78-1.79A1.78,1.78,0,0,1,170.47,133.68Z"/><path class="cls-3" d="M1.64,111.91c-.5,3.81,51.78,37.64,163.78,16.32C261.66,109.91,304,59.93,304,59.93Z"/><path class="cls-6" d="M1.64,111.91c-.5,3.81,51.78,37.64,163.78,16.32C261.66,109.91,304,59.93,304,59.93Z"/><ellipse class="cls-3" cx="151.82" cy="84.84" rx="153.85" ry="20.48" transform="translate(-11.82 25.94) rotate(-9.4)"/><path class="cls-7" d="M81.33,87.81S68.8,19.3,136.23,2.54s82,55.06,82,55.06S177.88,96.55,81.33,87.81Z"/><path class="cls-5" d="M109.46,22.3c.26.3-1.9,2.42-5,6.12-.77.93-1.61,1.94-2.43,3.08s-1.71,2.37-2.61,3.67a82.86,82.86,0,0,0-5.1,8.93,84.08,84.08,0,0,0-3.8,9.55c-.45,1.52-.92,3-1.24,4.33s-.65,2.65-.9,3.82c-1,4.71-1.28,7.72-1.68,7.71s-.67-3.07-.14-8c.14-1.23.31-2.58.61-4s.64-2.95,1-4.54A64.7,64.7,0,0,1,92,43a64,64,0,0,1,5.47-9.17c1-1.31,1.92-2.56,2.89-3.65s1.88-2.1,2.75-3C106.65,23.69,109.26,22.05,109.46,22.3Z"/><path class="cls-5" d="M292,60a3.53,3.53,0,0,1-.36.57A12.68,12.68,0,0,1,290.34,62a25.13,25.13,0,0,1-5.83,4,159.7,159.7,0,0,1-21.21,9.35A158.25,158.25,0,0,1,241,81.47c-2.91.58-5.28,1-6.93,1.2l-1.89.25a3.07,3.07,0,0,1-.67,0,4,4,0,0,1,.65-.15l1.88-.35c1.63-.3,4-.74,6.88-1.36a175.19,175.19,0,0,0,22.25-6.33,177,177,0,0,0,21.22-9.19,27.31,27.31,0,0,0,5.86-3.77A24.59,24.59,0,0,0,292,60Z"/><path class="cls-8" d="M139.09,132.61a4,4,0,0,1-1-.46,23.63,23.63,0,0,1-2.57-1.58,30.56,30.56,0,0,1-3.48-2.84,31.28,31.28,0,0,1-6.48-8.83,30.78,30.78,0,0,1-1.68-4.17,21.83,21.83,0,0,1-.74-2.93,3.88,3.88,0,0,1-.14-1.09c.09,0,.39,1.52,1.23,3.91a37.07,37.07,0,0,0,1.75,4.06,38.3,38.3,0,0,0,2.85,4.61,37.8,37.8,0,0,0,3.55,4.09,33.71,33.71,0,0,0,3.35,2.89C137.75,131.78,139.14,132.53,139.09,132.61Z"/><path class="cls-8" d="M132.56,117.4c0,.07-.22.21-.27.6a.73.73,0,0,0,.16.56.58.58,0,0,0,.62.09.57.57,0,0,0,.38-.5.73.73,0,0,0-.28-.51c-.3-.24-.58-.17-.61-.24s.28-.32.8-.07a1,1,0,0,1-.1,1.8,1,1,0,0,1-1.32-1.22C132.13,117.37,132.57,117.33,132.56,117.4Z"/><path class="cls-8" d="M137.94,124.83c0,.07-.22.21-.27.6a.73.73,0,0,0,.16.56.58.58,0,0,0,.62.09.55.55,0,0,0,.38-.5.73.73,0,0,0-.28-.51c-.3-.24-.58-.17-.61-.24s.29-.32.81-.07a1,1,0,1,1-1.43.58C137.51,124.8,138,124.76,137.94,124.83Z"/><path class="cls-8" d="M.32,109.26a6.08,6.08,0,0,1,.77-.36L3.35,108c2-.81,4.84-1.92,8.41-3.23,7.15-2.63,17.14-5.94,28.37-8.9s21.56-5,29.07-6.24C73,89,76,88.52,78.11,88.26l2.43-.3a4.19,4.19,0,0,1,.85-.07,5.29,5.29,0,0,1-.83.17l-2.42.4c-2.1.32-5.14.82-8.88,1.49-7.48,1.33-17.78,3.43-29,6.38s-21.21,6.21-28.37,8.75c-3.58,1.26-6.47,2.32-8.46,3.07l-2.3.85A4.77,4.77,0,0,1,.32,109.26Z"/><path class="cls-8" d="M223.24,91.07a7.72,7.72,0,0,1-1.37-.63l-3.65-1.85c-3.08-1.56-7.36-3.66-12.16-5.82s-9.22-4-12.43-5.25L189.83,76a7.8,7.8,0,0,1-1.38-.61,9.19,9.19,0,0,1,1.45.42c.92.3,2.24.76,3.86,1.35,3.25,1.19,7.69,3,12.51,5.12s9.08,4.33,12.12,6c1.52.82,2.75,1.5,3.58,2A9.18,9.18,0,0,1,223.24,91.07Z"/><path class="cls-8" d="M193.88,81.29c.06.06-.2.34-.13.85a1.07,1.07,0,0,0,.41.7.93.93,0,0,0,1.37-.81,1.07,1.07,0,0,0-.41-.69c-.41-.32-.79-.22-.81-.3s.38-.33,1,0a1.32,1.32,0,0,1,.69,1,1.36,1.36,0,0,1-2.12,1.24,1.33,1.33,0,0,1-.49-1.06C193.41,81.46,193.87,81.23,193.88,81.29Z"/><path class="cls-8" d="M64.91,92.48c.06,0-.21.33-.13.85a1,1,0,0,0,.41.69.84.84,0,0,0,.9,0,.85.85,0,0,0,.46-.78,1,1,0,0,0-.41-.69c-.41-.32-.78-.22-.8-.3s.37-.34,1,0a1.37,1.37,0,0,1,.69,1,1.37,1.37,0,0,1-2.13,1.25,1.36,1.36,0,0,1-.49-1.06C64.43,92.65,64.89,92.42,64.91,92.48Z"/><path class="cls-8" d="M41.55,98.24c.06.06-.21.34-.13.85a1,1,0,0,0,.41.69.82.82,0,0,0,.9,0,.85.85,0,0,0,.46-.78,1,1,0,0,0-.41-.69c-.41-.32-.78-.22-.8-.3s.37-.34,1,0a1.35,1.35,0,0,1,.69.94,1.31,1.31,0,0,1-.67,1.29,1.29,1.29,0,0,1-1.46,0,1.34,1.34,0,0,1-.49-1.06C41.07,98.41,41.53,98.18,41.55,98.24Z"/><path class="cls-8" d="M15,105.58c.06.06-.21.34-.13.85a1.09,1.09,0,0,0,.41.7.86.86,0,0,0,.9,0,.87.87,0,0,0,.46-.79,1,1,0,0,0-.41-.69c-.41-.32-.78-.22-.8-.3s.38-.33,1,0a1.25,1.25,0,0,1,0,2.24,1.3,1.3,0,0,1-1.45,0,1.31,1.31,0,0,1-.5-1.06C14.52,105.75,15,105.52,15,105.58Z"/><path class="cls-8" d="M205.56,87.33c.06.06-.2.34-.13.85a1.07,1.07,0,0,0,.41.7.88.88,0,0,0,.91,0,.87.87,0,0,0,.46-.78,1.06,1.06,0,0,0-.41-.7c-.41-.32-.79-.22-.81-.3s.38-.33,1,0a1.32,1.32,0,0,1,.69,1,1.36,1.36,0,0,1-2.12,1.24,1.33,1.33,0,0,1-.49-1.06C205.09,87.5,205.55,87.27,205.56,87.33Z"/><path class="cls-9" d="M168.47,82.06s1.52-6.86,3.28-7.89,5-1.35,5.83-.12c.64,1,1.39,5.14.18,4.29a10.82,10.82,0,0,1-2-2.53l-2.25.87L172,81Z"/><polygon class="cls-8" points="174.54 78.56 174.98 80.06 175.91 79.74 175.38 78.01 174.54 78.56"/><circle class="cls-3" cx="174.43" cy="76.8" r="1.83"/><path class="cls-9" d="M148.58,21.86a17.59,17.59,0,0,0-21.2,16l0,.47a15.21,15.21,0,0,0,.56,5.07,25,25,0,0,0,4.32,8.43c5.68,7.17,8.27,7.12,9.25,11.48s1.75,5.23-.28,7.37a13,13,0,0,0-4.65,1.78c-1.57,1.23-2.89,2.15-2.47,7.33s.57,8.4.57,8.4A139.67,139.67,0,0,0,161.53,84L159,71.06A3.6,3.6,0,0,0,156,68.92c-2.11-.13-5.29.34-5.61-.77s.1-1.54.1-1.54,3.94,1.07,6.25-.34,4.86-3.24,5.11-5.17,1-8.49.62-8.74,3.27-3.9,2.58-11.24-6.72-16.55-13.52-18.52C150.55,22.31,149.55,22.06,148.58,21.86Z"/><path class="cls-8" d="M138.52,39.88S152,34,151.78,50.39C151.78,50.39,137.09,54,138.52,39.88Z"/><path class="cls-8" d="M157.75,49.33s-7.51-13.33,3-13.14C160.71,36.19,167.49,45.69,157.75,49.33Z"/><g class="cls-10"><path class="cls-5" d="M135.35,27.68a2.24,2.24,0,0,0-2,2A2.34,2.34,0,0,0,135.09,32a2.31,2.31,0,0,0,2.59-1.3A2.27,2.27,0,0,0,136.8,28a2.23,2.23,0,0,0-1.9-.18"/></g><path class="cls-9" d="M141.09,42.86a.94.94,0,0,0-.9.76.94.94,0,0,0,1.75.59.94.94,0,0,0-.26-1.17.91.91,0,0,0-.78-.15"/><path class="cls-9" d="M141.87,46.25a.47.47,0,0,0-.46.38.49.49,0,0,0,.32.52.47.47,0,0,0,.57-.22.48.48,0,0,0-.13-.6.47.47,0,0,0-.4-.07"/><g class="cls-10"><path class="cls-5" d="M132.62,33.25a.88.88,0,1,0,.62-.06"/></g><path class="cls-8" d="M147.8,52.41a2,2,0,0,1-.66.12,8.34,8.34,0,0,1-1.81-.06,9.71,9.71,0,0,1-8.27-7.74,8.51,8.51,0,0,1-.18-1.81,2.12,2.12,0,0,1,.07-.66c.08,0,0,1,.41,2.4a10,10,0,0,0,8,7.5C146.85,52.44,147.79,52.33,147.8,52.41Z"/><path class="cls-8" d="M150.78,41.55a14.43,14.43,0,0,0-4.15-3,14.2,14.2,0,0,0-5-.91,3.66,3.66,0,0,1,1.53-.23,9.31,9.31,0,0,1,3.66.74,9.5,9.5,0,0,1,3.08,2.11A3.47,3.47,0,0,1,150.78,41.55Z"/><path class="cls-8" d="M155.24,42.75a3.55,3.55,0,0,1-.38-1.24,7.84,7.84,0,0,1-.1-3.16,4.21,4.21,0,0,1,1.75-2.66,1.75,1.75,0,0,1,1.27-.35,10.06,10.06,0,0,0-1.09.61,4.32,4.32,0,0,0-1.5,2.49,9.9,9.9,0,0,0,0,3A4.37,4.37,0,0,1,155.24,42.75Z"/><path class="cls-8" d="M162.52,47.22A4.11,4.11,0,0,1,158.17,50a12.77,12.77,0,0,0,2.44-1A12.17,12.17,0,0,0,162.52,47.22Z"/><path class="cls-8" d="M154.16,66.72a3.37,3.37,0,0,1-1.49.22,8.62,8.62,0,0,1-3.57-.77A8.85,8.85,0,0,1,146.15,64a3.51,3.51,0,0,1-.83-1.26c.06,0,.4.42,1.05,1a10.22,10.22,0,0,0,6.31,2.82A10.66,10.66,0,0,1,154.16,66.72Z"/><path class="cls-8" d="M140.47,87.6a19.21,19.21,0,0,1-.69-4,18.44,18.44,0,0,1-.25-4,18.44,18.44,0,0,1,.69,4A18.44,18.44,0,0,1,140.47,87.6Z"/><path class="cls-8" d="M148.68,83.52a8.14,8.14,0,0,1-3.65.9,4,4,0,0,1-2.67-.47c-.61-.45-.66-1-.61-1s.22.39.78.7A4.38,4.38,0,0,0,145,84C147,83.86,148.64,83.39,148.68,83.52Z"/><path class="cls-8" d="M157.12,85a13.17,13.17,0,0,1-.9-3.28,12.88,12.88,0,0,1-.48-3.36,13.17,13.17,0,0,1,.9,3.28A13.41,13.41,0,0,1,157.12,85Z"/><path class="cls-8" d="M156.07,79.65a2.62,2.62,0,0,1-1.23,2,2.66,2.66,0,0,1-2.23.66,13.88,13.88,0,0,0,2-1C155.55,80.55,156,79.6,156.07,79.65Z"/><path class="cls-9" d="M157.44,20A12.15,12.15,0,0,0,155,21.82a12.19,12.19,0,0,0-1.59,2.63c-.06,0-.05-.37.12-.94a5.49,5.49,0,0,1,3-3.34C157.05,19.94,157.42,19.89,157.44,20Z"/><path class="cls-9" d="M158.34,18.93a1.14,1.14,0,0,0-1.43.62,1,1,0,0,0,1.39,1.28,1.13,1.13,0,0,0,.31-1.77.64.64,0,0,0-.64-.21"/><path class="cls-9" d="M153.43,18.87A13.5,13.5,0,0,0,151,20.74a13.47,13.47,0,0,0-1.59,2.64s0-.38.13-.94a5.44,5.44,0,0,1,1.14-2,5.57,5.57,0,0,1,1.85-1.35C153.05,18.86,153.42,18.82,153.43,18.87Z"/><path class="cls-9" d="M154.34,17.86a1.15,1.15,0,0,0-1.44.62,1,1,0,0,0,1.39,1.28,1.13,1.13,0,0,0,.32-1.77.64.64,0,0,0-.64-.21"/><path class="cls-8" d="M155,56.72c0,.14-.72.08-1.52-.13s-1.42-.5-1.39-.64.72-.08,1.52.13S155,56.58,155,56.72Z"/></g><g id="Character"><path class="cls-11" d="M192.28,286.52c.18.55.37,1.19.55,2a5.66,5.66,0,0,1,.14,2,8.82,8.82,0,0,1-.51,2.46c-.33.7.36,1.44,1,1.11s1.58-2.24,1.61-4.74,2.47.58,3.38,1.69,3.89,4.39,4.45,4.38c.82,0,1-.9,0-2s-3.51-4.53-2.9-5,5.15,5.24,5.15,5.24.78,1.37,1.5.87c1.29-.9-4-6.59-4.51-7.11-.36-.37.28-.89.65-.47s4.41,5.78,5.74,4.87c1-.69-4.31-4.72-4.53-6.29s3.73,3.46,4.67,2.76c.36-.26.58-.51-2.1-3.07-1.31-1.25-6.29-5-6.29-5L186.4,235.68l-12.1,6.4Z"/><path class="cls-12" d="M158.66,282.57l18.83-2.14-8.52-13-4.82.12a8.56,8.56,0,0,0-7.53,4.91h0a8.53,8.53,0,0,0-.72,5Z"/><path class="cls-13" d="M158.66,282.57l18.83-2.14-8.52-13-4.82.12a8.56,8.56,0,0,0-7.53,4.91h0a8.53,8.53,0,0,0-.72,5Z"/><path class="cls-11" d="M238.42,306.07c.18.54.37,1.18.55,1.95a5.92,5.92,0,0,1,.14,2,9.35,9.35,0,0,1-.51,2.47c-.33.7.36,1.44,1,1.1s1.58-2.24,1.61-4.73,2.47.58,3.38,1.68,3.89,4.39,4.45,4.38c.82,0,1-.9,0-2s-3.51-4.52-2.9-5,5.15,5.24,5.15,5.24.78,1.38,1.5.88c1.29-.9-4-6.59-4.51-7.12-.36-.37.28-.88.65-.47s4.41,5.78,5.74,4.88c1-.7-4.31-4.72-4.53-6.3s3.73,3.46,4.67,2.76c.36-.26.58-.5-2.1-3.07-1.31-1.25-6.29-5-6.29-5l-13.88-44.54-12.1,6.39Z"/><path class="cls-12" d="M196.27,370l17.29,8.24-10.15,21.56c-2-1.09-.88-14.19-.88-14.19l-11.29-4.83Z"/><g class="cls-14"><path class="cls-5" d="M204.73,378.51a1,1,0,0,1,1.29-.13.93.93,0,0,1,.15,1.27,1,1,0,0,1-1.37.14,1,1,0,0,1,0-1.35"/></g><path class="cls-15" d="M213.56,378.25l-1.78-.76-9.06,20.95s0,1.16.69,1.37Z"/><path class="cls-8" d="M202.25,385.92c.11,0,.41-.46,1-.82s1.15-.43,1.16-.54-.68-.25-1.38.2S202.15,385.89,202.25,385.92Z"/><path class="cls-8" d="M202.12,388.62c.09.07.49-.3,1.1-.45s1.13,0,1.18-.14-.52-.45-1.28-.25S202,388.57,202.12,388.62Z"/><path class="cls-8" d="M204.23,391.17c.06-.08-.39-.48-1.1-.48s-1.16.39-1.09.47.51-.07,1.09-.06S204.17,391.27,204.23,391.17Z"/><path class="cls-8" d="M199.8,384.53c.12,0,.2-.55.52-1.13s.73-.95.66-1-.65.17-1,.85S199.69,384.54,199.8,384.53Z"/><path class="cls-8" d="M197.49,382.81s.3-.36.5-1.08a5.28,5.28,0,0,0,.18-1.29,4.16,4.16,0,0,0,0-.78,1.14,1.14,0,0,0-.1-.44.49.49,0,0,0-.53-.31.64.64,0,0,0-.46.34,1.71,1.71,0,0,0-.14.44,4.21,4.21,0,0,0-.08.78,4.16,4.16,0,0,0,.18,1.3,2.11,2.11,0,0,0,.58,1.05c.06,0-.16-.43-.3-1.12a5.1,5.1,0,0,1-.09-1.22,6.06,6.06,0,0,1,.1-.71c.05-.26.14-.45.27-.46s.06,0,.11.08a1.27,1.27,0,0,1,.07.32,6.33,6.33,0,0,1,.06.73,6.5,6.5,0,0,1-.09,1.23A7.47,7.47,0,0,0,197.49,382.81Z"/><path class="cls-8" d="M197.7,382.75s-.24-.42-.91-.78a4.17,4.17,0,0,0-1.25-.41,4,4,0,0,0-.78,0,1,1,0,0,0-.87.43.54.54,0,0,0,.09.59,1.53,1.53,0,0,0,.34.3,2.42,2.42,0,0,0,.73.34,2.8,2.8,0,0,0,1.33.07c.76-.16,1.09-.54,1.06-.57a9.4,9.4,0,0,1-1.1.29,2.8,2.8,0,0,1-1.18-.14,2.51,2.51,0,0,1-.61-.31c-.22-.15-.36-.32-.3-.39a.67.67,0,0,1,.53-.21,4.2,4.2,0,0,1,.71,0,4.41,4.41,0,0,1,1.18.3C197.32,382.5,197.66,382.8,197.7,382.75Z"/><path class="cls-12" d="M181.73,399.61l6.74,15.45,1.81,13.76a1.72,1.72,0,0,0,2.05,1.46h0a1.72,1.72,0,0,0,1.24-1c1.44-3.26,6.7-15.27,6.15-16.37-.65-1.28-6-16.77-6-16.77Z"/><path class="cls-15" d="M192.33,430.28l7-18.41.27.67a2.62,2.62,0,0,1,.07,1.79c-.52,1.57-2,5.87-6,14.95a1.69,1.69,0,0,1-1.28,1Z"/><g class="cls-14"><path class="cls-5" d="M194,408.15a1,1,0,0,0,.25,1.37,1,1,0,0,0,1.36-.23,1.12,1.12,0,0,0-.27-1.46,1.05,1.05,0,0,0-1.39.41"/></g><path class="cls-8" d="M193.11,422a5.13,5.13,0,0,0-1.87-.65,4.93,4.93,0,0,0-1.93.39s.11-.24.46-.44a2.64,2.64,0,0,1,1.5-.32,2.72,2.72,0,0,1,1.44.52C193,421.76,193.14,422,193.11,422Z"/><path class="cls-8" d="M192.85,424.55a15.17,15.17,0,0,0-1.66-.1c-.9.08-1.53.51-1.6.42s.54-.7,1.57-.79A1.91,1.91,0,0,1,192.85,424.55Z"/><path class="cls-8" d="M194.08,418.48a18.91,18.91,0,0,0-2.54-.33,16.93,16.93,0,0,0-2.54.41,3.75,3.75,0,0,1,2.53-.78A3.85,3.85,0,0,1,194.08,418.48Z"/><path class="cls-8" d="M192.42,413.62c0,.11-1,.1-2.15.52s-1.91,1.05-2,1a3.39,3.39,0,0,1,1.87-1.32A3.24,3.24,0,0,1,192.42,413.62Z"/><path class="cls-8" d="M190.56,409a8.76,8.76,0,0,0-2.25.48,8.4,8.4,0,0,0-1.86,1.37s.05-.29.33-.64a3.78,3.78,0,0,1,3.08-1.39C190.31,408.88,190.57,409,190.56,409Z"/><path class="cls-8" d="M188,408.63a1.46,1.46,0,0,1-.26-.58,4.49,4.49,0,0,1-.17-1.74,2,2,0,0,1,.43-1.18.68.68,0,0,1,.78-.16,1.15,1.15,0,0,1,.54.61,2.45,2.45,0,0,1-1.13,2.9,2.83,2.83,0,0,1-3.13-.32,1,1,0,0,1-.36-.74.68.68,0,0,1,.53-.6,2.36,2.36,0,0,1,1.24.11,4.66,4.66,0,0,1,1.56.78c.33.24.48.42.46.44a7.53,7.53,0,0,0-2.09-1,2.24,2.24,0,0,0-1.09-.07.36.36,0,0,0-.28.33.65.65,0,0,0,.26.47,2.51,2.51,0,0,0,2.72.24,2.13,2.13,0,0,0,1-2.45.82.82,0,0,0-.36-.43.37.37,0,0,0-.43.08,1.8,1.8,0,0,0-.38,1A6.27,6.27,0,0,0,188,408.63Z"/><path class="cls-8" d="M207.15,372.24l-19.44-14.07,8.79-64.43L178,282.09l-17.1-4.58s-7.71,14.73-11.23,24.21c-7.51,20.15-12.53,27.29-11.95,42.11.19,4.68,17.06,17,27.75,23.84a34.67,34.67,0,0,0,.44,3.89c3.16,17,13.77,39.77,13.77,39.77l17.56-7.44-4.93-19.3,5.7,3.59ZM165.8,329.09l2.68-10.28c-.72,6.57-1.4,13.43-1.94,20A20.53,20.53,0,0,1,165.8,329.09Z"/><path class="cls-9" d="M179.71,411.33a1.16,1.16,0,0,1-.13-.27l-.33-.83L178,407c-1.05-2.78-2.56-6.82-4.37-11.82s-3.94-11-6.08-17.68c-.53-1.68-1-3.41-1.53-5.19a26.61,26.61,0,0,1-.6-2.74c0-.24-.08-.47-.11-.71l-.06-.71c0-.47-.08-.94-.11-1.42q-.21-2.86-.3-5.84c0-1-.05-2-.05-3s0-2,.08-3c.57-8.12,1.51-15.8,2.31-22.79s1.57-13.27,2.19-18.56,1.06-9.56,1.33-12.53c.15-1.48.24-2.63.3-3.41,0-.37.06-.67.08-.89a1.4,1.4,0,0,1,0-.3s0,.11,0,.31,0,.51,0,.89c0,.78-.1,1.93-.22,3.42-.23,3-.64,7.25-1.22,12.54s-1.31,11.59-2.11,18.57-1.72,14.68-2.28,22.77c-.1,1-.08,2-.08,3s0,2,0,3c.05,2,.15,3.92.29,5.82,0,.48.07.95.11,1.42l.05.71c0,.23.08.46.11.69.12.91.39,1.81.6,2.7.47,1.78,1,3.5,1.51,5.18,2.11,6.7,4.23,12.68,6,17.69s3.25,9,4.26,11.86l1.16,3.22.3.84Z"/><path class="cls-9" d="M170.39,294.21s-.17-.12-.44-.38a4.77,4.77,0,0,1-.8-1.38,14.68,14.68,0,0,1-.67-5.16,44.7,44.7,0,0,1,.42-5.17,12.83,12.83,0,0,1,.38-2.12,12.52,12.52,0,0,1-.12,2.14c-.11,1.32-.28,3.14-.31,5.15a16.57,16.57,0,0,0,.55,5.07,6.16,6.16,0,0,0,.66,1.38C170.29,294,170.41,294.19,170.39,294.21Z"/><path class="cls-9" d="M163.47,278.57a4.2,4.2,0,0,1,.09,1.81,8.34,8.34,0,0,1-5,6.82,4.7,4.7,0,0,1-1.75.47c0-.07.66-.22,1.64-.71a8.83,8.83,0,0,0,4.85-6.61C163.47,279.26,163.41,278.57,163.47,278.57Z"/><path class="cls-9" d="M193.11,317.21s0,.07,0,.2,0,.34-.07.57c-.07.53-.17,1.27-.3,2.2-.28,1.94-.67,4.69-1.16,8.08-1,6.85-2.4,16.26-3.94,26.65a48.56,48.56,0,0,0,.48,14.71,51.3,51.3,0,0,0,1.59,6.25c.6,1.93,1.17,3.73,1.68,5.38l2.41,7.8c.27.9.48,1.61.64,2.13l.15.55c0,.13,0,.19,0,.2a1.38,1.38,0,0,1-.07-.19c-.05-.14-.12-.32-.19-.54l-.71-2.11c-.6-1.86-1.46-4.5-2.52-7.76-.53-1.64-1.1-3.44-1.72-5.37a49.45,49.45,0,0,1-1.64-6.28,48.6,48.6,0,0,1-.51-14.82c1.52-10.42,3-19.81,4.05-26.63.54-3.39,1-6.13,1.28-8.07.15-.93.28-1.66.36-2.19.05-.23.08-.42.11-.57A.5.5,0,0,1,193.11,317.21Z"/><path class="cls-5" d="M158.08,282.5a2.28,2.28,0,0,1-.19.49l-.6,1.35c-.54,1.16-1.31,2.85-2.22,5-1.84,4.19-4.26,10-6.8,16.55s-4.76,12.45-6.38,16.74c-.8,2.08-1.45,3.8-1.94,5.07L139.4,329a2.19,2.19,0,0,1-.22.46,1.66,1.66,0,0,1,.12-.5c.13-.38.28-.84.46-1.4l1.78-5.13c1.53-4.32,3.7-10.28,6.25-16.8s5-12.35,6.94-16.52c1-2.08,1.78-3.75,2.37-4.88l.7-1.31A2.44,2.44,0,0,1,158.08,282.5Z"/><path class="cls-5" d="M172,297a3.16,3.16,0,0,1,0,1c0,.61-.11,1.5-.23,2.59-.23,2.17-.67,5.17-1.22,8.46s-1,6.27-1.36,8.43a25.89,25.89,0,0,1-.61,3.49,3.75,3.75,0,0,1,0-1c0-.61.12-1.49.23-2.58.24-2.18.67-5.17,1.22-8.47s1-6.26,1.37-8.42A25.12,25.12,0,0,1,172,297Z"/><polyline class="cls-11" points="160.94 277.39 164.25 269.69 170.86 280.32 161.66 277.68"/><path class="cls-12" d="M234.61,256.43,227,237.62c-.89-3-2.73-3.54-4.22-5.32l-20.31-12.38c-14.88-6.69-23.8,13.75-23.8,13.75l-14.78,30.82c-16.31,4.79-5.31,17.57-5.31,17.57s-4.13-7.78.28-10.38c4.61-2.73,9.36,5,13.93,12.4,5.39,8.71,23.66,14.87,23.66,14.87,2.24-2.21,1.91-10.19,3.74-14.41.58-1.34,14.38-30.51,14.38-30.51l4.54,12.17s6.61-7.23,9.73-8.3A35.43,35.43,0,0,1,234.61,256.43Z"/><path class="cls-12" d="M172.66,247.49l4.24-8.05h0l21-20.77-8.1-.7a12.48,12.48,0,0,0-11.23,5.51l-.88,1.3a21,21,0,0,0-3.37,9.05Z"/><path class="cls-8" d="M182.3,227a2,2,0,0,1-.17.39c-.14.28-.33.64-.55,1.09l-2,4c-1.71,3.37-4,8.07-6.45,13.28s-4.7,9.92-6.39,13.31c-.84,1.69-1.54,3.05-2,4-.23.44-.42.79-.58,1.07a1.93,1.93,0,0,1-.22.37,1.53,1.53,0,0,1,.16-.4l.51-1.1,1.93-4,6.3-13.35c2.47-5.21,4.78-9.9,6.54-13.24.88-1.67,1.62-3,2.14-3.93l.62-1.05A1.85,1.85,0,0,1,182.3,227Z"/><path class="cls-8" d="M221.08,234.63c0,.07-.77.45-1.88,1.34a13.38,13.38,0,0,0-1.79,1.72,14.8,14.8,0,0,0-1.71,2.52,15,15,0,0,0-1.11,2.82,13.43,13.43,0,0,0-.41,2.45c-.1,1.42,0,2.3,0,2.31a2.13,2.13,0,0,1-.13-.61,4.64,4.64,0,0,1-.08-.73,7.85,7.85,0,0,1,0-1,11.86,11.86,0,0,1,.34-2.52,12.81,12.81,0,0,1,2.89-5.48,12.36,12.36,0,0,1,1.89-1.71,7.1,7.1,0,0,1,.81-.54,4.3,4.3,0,0,1,.65-.35A2.13,2.13,0,0,1,221.08,234.63Z"/><path class="cls-8" d="M192.08,284.55l-.33.12a8.73,8.73,0,0,1-.95.26,12.15,12.15,0,0,1-8.76-1.52,16.34,16.34,0,0,1-4.7-4.65c-1.35-1.92-2.42-3.89-3.49-5.6a27.69,27.69,0,0,0-3.17-4.32,14.24,14.24,0,0,0-2.74-2.32c-.73-.46-1.16-.64-1.15-.68a6.61,6.61,0,0,1,1.21.57,13.21,13.21,0,0,1,2.84,2.28A27,27,0,0,1,174.1,273c1.08,1.72,2.15,3.68,3.5,5.58a16.42,16.42,0,0,0,4.59,4.59,12.23,12.23,0,0,0,5,1.73,13,13,0,0,0,3.59-.09C191.61,284.66,192.07,284.52,192.08,284.55Z"/><path class="cls-5" d="M184.43,255.8s.29.39.87,1.05a8.77,8.77,0,0,0,2.88,2.22,10.5,10.5,0,0,0,5.3.89,11.89,11.89,0,0,0,6.19-2.13,10.89,10.89,0,0,0,3.92-5.21,10.6,10.6,0,0,0,.37-5.36,10.88,10.88,0,0,0-1.31-3.42,13.1,13.1,0,0,1-.72-1.16,4.67,4.67,0,0,1,.89,1,10.13,10.13,0,0,1,1.5,3.46,10.7,10.7,0,0,1-.28,5.58,11.07,11.07,0,0,1-4.07,5.48,12.06,12.06,0,0,1-6.46,2.19,10.52,10.52,0,0,1-5.49-1,8.33,8.33,0,0,1-2.88-2.42,6.57,6.57,0,0,1-.56-.86C184.47,255.92,184.41,255.81,184.43,255.8Z"/><path class="cls-5" d="M201,243.61a14.08,14.08,0,0,0-3.9-2.36,11.17,11.17,0,0,0-4.84-.67,11.31,11.31,0,0,0-5.58,2,10.62,10.62,0,0,0-2.24,2.14,10.52,10.52,0,0,0-2.23,7.31,10.71,10.71,0,0,0,.76,3.23c.3.74.52,1.12.49,1.14a3.35,3.35,0,0,1-.67-1.05,9.86,9.86,0,0,1-.95-3.29,10.32,10.32,0,0,1,.7-5,10.05,10.05,0,0,1,1.5-2.62,10.66,10.66,0,0,1,2.34-2.25,11.34,11.34,0,0,1,10.86-1.3,10.6,10.6,0,0,1,2.91,1.79,8,8,0,0,1,.66.66C200.91,243.51,201,243.6,201,243.61Z"/><path class="cls-5" d="M190.09,253.87a52.18,52.18,0,0,1,4.3-5.86,50.22,50.22,0,0,1,4.72-5.55,51.6,51.6,0,0,1-4.31,5.87A51.27,51.27,0,0,1,190.09,253.87Z"/><path class="cls-5" d="M194.86,260.05a15.42,15.42,0,0,1-1.27-3.82,15.83,15.83,0,0,1-.77-4,31.36,31.36,0,0,1,2,7.77Z"/><path class="cls-5" d="M193.23,251.89a6.74,6.74,0,0,1-.3-1.83l.23.16c-1.12.43-2.74,1-4.55,1.62a43.58,43.58,0,0,1-6.41,1.88,42,42,0,0,1,6.24-2.37c1.81-.61,3.45-1.13,4.61-1.47l.23-.06V250A7.08,7.08,0,0,1,193.23,251.89Z"/><path class="cls-5" d="M188.3,254.73c.12.07-.23.88-.86,1.76s-1.28,1.47-1.39,1.37.36-.82,1-1.68S188.17,254.65,188.3,254.73Z"/><path class="cls-8" d="M207.78,237.16a2.72,2.72,0,0,1-.34.27c-.22.18-.58.4-1,.76a28.5,28.5,0,0,0-3.3,3.15c-1.3,1.43-2.72,3.24-4.36,5.21a32.17,32.17,0,0,1-6,5.83,27.72,27.72,0,0,1-7.51,3.64,49.36,49.36,0,0,1-6.63,1.58c-1.91.34-3.46.54-4.53.68l-1.24.14a2.43,2.43,0,0,1-.44,0l.43-.09,1.23-.2c1.07-.17,2.62-.42,4.51-.78a52.41,52.41,0,0,0,6.58-1.64,27.41,27.41,0,0,0,7.41-3.62,32.26,32.26,0,0,0,5.94-5.75c1.64-2,3.09-3.76,4.42-5.18a26.13,26.13,0,0,1,3.39-3.1c.42-.34.79-.55,1-.71A1.55,1.55,0,0,1,207.78,237.16Z"/><path class="cls-5" d="M199.23,218.86a2,2,0,0,1-.46,0q-.45,0-1.29-.15c-1.12-.14-2.73-.41-4.72-.58a21.94,21.94,0,0,0-3.26,0,19.44,19.44,0,0,0-3.67.65,13.65,13.65,0,0,0-7.07,4.48,19.07,19.07,0,0,0-3.61,7.67c-.57,2.58-.86,5-1.12,7s-.43,3.53-.57,4.73a11.77,11.77,0,0,1-.24,1.73,1.19,1.19,0,0,1,0-.45c0-.3,0-.74.06-1.3.06-1.12.19-2.75.4-4.76a70.77,70.77,0,0,1,1-7,19.14,19.14,0,0,1,3.68-7.89,14,14,0,0,1,7.34-4.61,18.86,18.86,0,0,1,3.77-.62,19.81,19.81,0,0,1,3.32.1c2,.22,3.61.54,4.72.74A11.86,11.86,0,0,1,199.23,218.86Z"/><path class="cls-5" d="M222.1,235a14.33,14.33,0,0,0-6.41,7.15A9.24,9.24,0,0,1,222.1,235Z"/><g class="cls-10"><path d="M176.7,257.7a5.61,5.61,0,0,1,2.8-3.88,12.52,12.52,0,0,1,4.69-1.49,44.76,44.76,0,0,0,4.88-.82,14,14,0,0,0,7-4.42,8.34,8.34,0,0,1,2.32-2.27,1.22,1.22,0,0,1,.76-.16.55.55,0,0,1,.47.55.79.79,0,0,1-.19.39c-5.18,7.27-14.11,11.42-22.71,12.1"/></g><g class="cls-10"><path d="M214.1,245.92a50,50,0,0,0,5.09,19.29c.39-1.79,3.1-2.44,3.26-4.27a3.57,3.57,0,0,0-.38-1.62q-3.47-8.44-6.94-16.91a.5.5,0,0,0-.23-.3c-.31-.15-.52.33-.53.67-.06,1.22-.11,2.44-.16,3.66"/></g><path class="cls-5" d="M163.87,264.49c0,.09-1.13.28-2.79,1.1a10.67,10.67,0,0,0-5,4.87,9.33,9.33,0,0,0-.23,6.94,18.48,18.48,0,0,0,1.35,2.66s-.24-.17-.57-.58a8,8,0,0,1-1.13-2,9.25,9.25,0,0,1,.11-7.29,10.47,10.47,0,0,1,5.35-5,10.87,10.87,0,0,1,2.13-.68C163.57,264.47,163.86,264.45,163.87,264.49Z"/><path class="cls-5" d="M181.93,284.06a4.42,4.42,0,0,1-2.4-1.18,18.76,18.76,0,0,1-4.16-4.95c-1.3-2.18-2.28-4.21-3.25-5.52s-1.76-2-1.7-2a1.77,1.77,0,0,1,.61.39,9.28,9.28,0,0,1,1.38,1.41,46.86,46.86,0,0,1,3.4,5.47,22.12,22.12,0,0,0,3.95,4.94A13.19,13.19,0,0,0,181.93,284.06Z"/><path class="cls-11" d="M225.67,205.08l-12.76,22a7.91,7.91,0,0,1-10.31,3.14h0a7.91,7.91,0,0,1-3.39-11l2.2-3.81s-5.09-3.55-2.46-9.1c2.34-5,10.81-18.86,12.61-21.8l9.94,4.87A11.35,11.35,0,0,1,225.67,205.08Z"/><path class="cls-16" d="M201.44,215.29a14.35,14.35,0,0,0,8.19,1.47s-3.64,3.14-8.9,0Z"/><path class="cls-8" d="M207.17,198.05a.89.89,0,0,0,.37,1.17.85.85,0,0,0,1.16-.31.87.87,0,0,0-.37-1.17A.83.83,0,0,0,207.17,198.05Z"/><path class="cls-8" d="M206.43,195.93c0,.15.86,0,1.71.42s1.26,1.14,1.4,1.08.06-.25-.12-.58a2.4,2.4,0,0,0-1.06-1,2.3,2.3,0,0,0-1.42-.2C206.58,195.72,206.4,195.86,206.43,195.93Z"/><path class="cls-8" d="M215.6,202.16a.88.88,0,0,0,.37,1.17.85.85,0,0,0,1.16-.31.88.88,0,0,0-.37-1.17A.83.83,0,0,0,215.6,202.16Z"/><path class="cls-8" d="M214.86,199.92c0,.15.86,0,1.71.42s1.26,1.14,1.4,1.08.06-.25-.12-.58a2.4,2.4,0,0,0-1.06-1,2.3,2.3,0,0,0-1.42-.2C215,199.71,214.83,199.85,214.86,199.92Z"/><path class="cls-8" d="M208.08,205.81a6.48,6.48,0,0,0-1.26-.93c-.2-.12-.39-.27-.35-.43s.23-.37.46-.57l1.44-1.34a30.18,30.18,0,0,0,3.55-3.61,32.39,32.39,0,0,0-3.83,3.32l-1.42,1.36a1.33,1.33,0,0,0-.53.79.6.6,0,0,0,.2.49,1.85,1.85,0,0,0,.34.23A6.49,6.49,0,0,0,208.08,205.81Z"/><path class="cls-8" d="M216.26,197.26c0,.27.87.58,1.8,1.18s1.61,1.27,1.84,1.13.08-.35-.14-.74a3.59,3.59,0,0,0-1.18-1.2,3.71,3.71,0,0,0-1.6-.56C216.55,197,216.27,197.13,216.26,197.26Z"/><path class="cls-8" d="M208.2,193.33c.06.26.74.35,1.45.68s1.23.77,1.46.63.11-.3-.06-.61a2.15,2.15,0,0,0-1-.89,2.18,2.18,0,0,0-1.33-.17C208.36,193,208.18,193.2,208.2,193.33Z"/><path class="cls-11" d="M221.78,208.31c.12,0,4.34.74,2.37,4.45s-5.28,1-5.23.86S221.78,208.31,221.78,208.31Z"/><path class="cls-16" d="M220.8,212.81s0,.08.12.19a.72.72,0,0,0,.48.27,1.82,1.82,0,0,0,1.5-1.05,2.36,2.36,0,0,0,.31-1,.84.84,0,0,0-.23-.75.37.37,0,0,0-.47,0c-.11.08-.12.17-.14.16s-.05-.1.06-.24a.44.44,0,0,1,.27-.15.52.52,0,0,1,.41.09,1,1,0,0,1,.37.93,2.55,2.55,0,0,1-.33,1.16,1.9,1.9,0,0,1-1.79,1.1.78.78,0,0,1-.54-.41C220.76,212.91,220.78,212.81,220.8,212.81Z"/><path class="cls-8" d="M223.94,209.21a2.2,2.2,0,0,0-2.27,0c-.51.42-.86,1-1.37,1.42a1.47,1.47,0,0,1-1.8.22,1.27,1.27,0,0,1-.37-1.24,3.52,3.52,0,0,1,.58-1.22c1.09-1.66,2.31-3.22,3.25-5a10,10,0,0,0,1.39-5.67,5.53,5.53,0,0,0-3.19-4.64c-1.22-.47-2.6-.39-3.84-.8a5.12,5.12,0,0,1-3.2-3.14c-.07-.19-.47-.87-.47-.87s.52-.83,1-1c3.36-1,7.81.43,10.48,2.69a12.26,12.26,0,0,1,4.4,9.32c-.09,3.5-2.42,7.28-4.56,9.82"/><path class="cls-8" d="M224,208.83c1.11-1.74,2.86-3,4.21-4.54s2.32-3.81,1.46-5.69c-.29-.64-.78-1.19-1-1.85a8.74,8.74,0,0,1-.3-2.11,7.31,7.31,0,0,0-3.43-5.36c-1.3-.78-2.82-1.14-4.14-1.89-2.09-1.19-3.57-3.32-5.78-4.28a2.86,2.86,0,0,0-2.32-.15,1.39,1.39,0,0,0-.64,2,1.21,1.21,0,0,0-1.64-.86,1.82,1.82,0,0,0-1,1.76,4,4,0,0,0,.74,2,10.08,10.08,0,0,0,5.6,4.15l5.16-.23L225,195l2.95,5.07L222,207.26Z"/><path class="cls-16" d="M206,209.29a.93.93,0,0,0,.92.32,1.39,1.39,0,0,0,.77-.66,1.58,1.58,0,0,0,.22-1.08,1.16,1.16,0,0,0-.65-.88.93.93,0,0,0-1,.18A1.36,1.36,0,0,0,206,209.29Z"/><path class="cls-8" d="M206.18,207.06s.27-.34.88-.22a1.19,1.19,0,0,1,.82.63,1.52,1.52,0,0,1-1.84,2.15c-.55-.31-.52-.79-.48-.76s.11.36.58.56a1.22,1.22,0,0,0,1.52-.8,1.17,1.17,0,0,0-.66-1.57A1.74,1.74,0,0,0,206.18,207.06Z"/><path class="cls-5" d="M215,183.11a3.55,3.55,0,0,0-1.1-.27,2.34,2.34,0,0,0-1.26.31,1.31,1.31,0,0,0-.61,1.44l.23.89-.51-.76a1.36,1.36,0,0,0-2-.09,1,1,0,0,0-.15,1.15,8,8,0,0,1,.43,1.53v.06l0,.06c-.72,1.39-1.51,2.91-2.48,4.47s-2,3.15-3,4.84c-.75,1.23-1.49,2.42-2.23,3.55s-1.48,2.2-2.1,3.26a11.39,11.39,0,0,0-1.9,6.1,6.68,6.68,0,0,0,1.39,4,8.1,8.1,0,0,0,1.17,1.11s-.14,0-.39-.19a4.45,4.45,0,0,1-.93-.78,6.68,6.68,0,0,1-1.61-4.16,11.58,11.58,0,0,1,1.85-6.35c.62-1.09,1.36-2.17,2.09-3.3s1.46-2.32,2.21-3.54c1-1.69,2-3.34,3.07-4.85s1.77-3,2.5-4.4l0,.12a8.48,8.48,0,0,0-.39-1.45,2.12,2.12,0,0,1-.09-.8,1.15,1.15,0,0,1,.37-.74,1.71,1.71,0,0,1,2.51.18l-.29.13a1.58,1.58,0,0,1,.79-1.72,2.48,2.48,0,0,1,1.4-.28,2.37,2.37,0,0,1,.85.26C214.92,183,215,183.1,215,183.11Z"/></g></g></svg>